<svg width="930" height="540" viewBox="0 0 930 540" fill="none" xmlns="http://www.w3.org/2000/svg">
<path fill-rule="evenodd" clip-rule="evenodd" d="M917.49 249.55C917.49 249.55 929.43 257.73 929.43 263.19L929.44 263.2C929.44 269 926.63 272.68 915.46 280.59C912.275 282.844 908.474 285.095 903.646 287.954C900.893 289.584 897.807 291.411 894.31 293.55L893.718 293.912L893.712 293.915C869.399 308.793 835.331 329.639 818.37 346.6C773.84 391.13 725.85 393.54 707.32 392.52C695.07 408.36 656.94 449.71 580.17 469.95C495.88 492.17 467.38 526.06 467.1 526.4L456.59 539.24L447.59 525.33L447.584 525.322C447.183 524.766 427.31 497.189 354.1 472.27C272.37 444.45 238.55 406.22 227.79 391.07C209.75 390.59 161.29 385.69 116.78 349.67C82.8224 322.176 52.6745 309.096 31.4485 299.887L31.4471 299.886C24.9268 297.058 19.2482 294.594 14.56 292.19C14.3888 292.098 14.2099 292.002 14.024 291.902C9.39603 289.42 0.44535 284.62 0.579993 276.16C0.709998 267.36 7.07999 262.08 13.88 259.45C17.2745 257.56 21.4948 255.505 26.3838 253.125C45.3173 243.909 74.2784 229.812 104.13 201.47C156.4 151.84 204.87 146.07 223.54 145.91C234.18 130.1 266.38 90.3199 331.49 70.7899C419.24 44.4598 448.24 10.9498 448.52 10.6099L456.96 0.589844L466.22 9.84985C466.48 10.0999 498.28 40.3998 584.29 62.1099C673.01 84.4999 705.22 122.41 715.48 139.06C731.74 139.28 768.72 144.05 811.35 177.74C862.56 218.21 903.17 241.95 917.49 249.55ZM880.62 273.68C886.13 270.32 891.97 266.74 896.93 263.6L896.94 263.58C876.16 252.11 838.83 230.1 796.45 196.61C748.81 158.97 711.54 163.09 709.99 163.29L700.48 164.47L697.11 155.48L697.109 155.477C696.902 154.993 677.959 110.562 578.42 85.4398C510.67 68.3398 473.97 45.9698 458.38 34.4298C443.42 47.4298 407.4 73.1298 338.41 93.8298C267.88 114.99 240.94 163.39 240.68 163.88L236.76 171.1L228.59 170.12C226.57 169.89 177.38 165.11 120.7 218.92C91.73 246.42 58.23 264.15 35.25 274.44C59.58 284.32 95.17 301.2 131.92 330.95C176.75 367.23 227.39 367.12 233.16 367.01L233.257 367.007L233.402 367.004L233.495 367.002L233.632 367L233.7 367L241.42 366.61L245.02 373.47L245.024 373.476C245.427 374.188 270.52 418.389 361.86 449.49C417.45 468.42 445.41 489.05 458.33 501.43C473.81 488.02 508.75 463.9 574.04 446.69C658.98 424.28 691.06 374.02 691.37 373.52L695.66 366.63L703.66 368.03C705.68 368.36 755.1 375.87 801.37 329.59C820.456 310.494 855.151 289.264 880.523 273.74L880.62 273.68ZM872.34 264.01L866.8 266.3V266.29L866.762 266.306C865.146 266.989 817.721 287.031 785.13 320.61C748.36 358.49 699.56 352.17 689.41 350.35C683.41 359.95 649.61 407.45 553.43 434.87C477.85 456.43 459.93 477.63 459.76 477.84L457.75 480.31L455.73 477.84C455.54 477.61 436.06 454.35 363.33 431.1C284.63 405.95 255.29 359.74 250.35 351.03C239.69 350.65 178.47 347.55 155.39 327.25C108.4 285.92 73.21 276.05 72.86 275.96L64.5201 273.7L72.73 271C73.09 270.88 109 258.84 139.53 226.66C178.54 185.52 232.78 187.05 243.76 187.84C248.25 177.68 273.31 129.68 355.52 104.89C435.86 80.6599 455.46 55.2698 455.65 55.0098L457.37 52.7098L459.49 54.6498L459.492 54.6519C459.907 55.0238 488.71 80.8691 565.58 98.7098C671.64 123.32 687.86 169 690.29 180.58C701.7 179.47 748.3 176.95 778.86 204.34C817.68 239.14 866.38 261.33 866.88 261.55L872.34 264.01ZM781.41 317.01C808.7 288.89 846.07 270.09 859.64 263.82H859.62C845.94 257.08 807.36 236.85 775.38 208.18C742.89 179.04 688.98 185.9 688.44 185.97L685.75 186.33L685.52 183.61C685.47 183.08 679.73 130.5 564.39 103.73C496.43 87.9598 465.81 66.4099 458 60.1599C451.65 66.9299 426.95 88.7198 356.99 109.83C269.35 136.27 248.03 190.92 247.83 191.47L247.12 193.38L245.1 193.14C244.5 193.06 184.82 186.4 143.27 230.21C119.54 255.22 93.26 268.21 81.12 273.3C93.7801 278.15 122.64 291.54 158.79 323.34C182.143 343.894 251.147 345.867 251.948 345.89H251.95L253.49 345.93L254.19 347.3C254.45 347.82 281.8 399.61 364.88 426.17C427.45 446.16 451.24 466 457.75 472.45C464.21 466.34 487.49 448.29 552 429.9C655.02 400.53 685.54 346.75 685.84 346.21L686.79 344.48L688.71 344.94C689.24 345.06 742.48 357.11 781.41 317.01ZM450.72 372.71C452.86 366.79 457.71 361.46 457.71 361.46V361.45C457.71 361.45 462.95 367.78 464.48 372.7C464.615 373.132 464.755 373.602 464.9 374.09C465.851 377.282 467.04 381.272 468.74 380.89C478.072 377.401 482.885 381.298 486.234 384.008L486.237 384.011L486.408 384.149L486.564 384.275L486.712 384.394L486.88 384.529L487.06 384.67C487.332 384.883 487.595 385.082 487.85 385.26C487.85 385.26 477.87 391.93 474.31 395.2C470.75 398.47 459.43 423.49 458.8 432.44C458.4 433.48 456.88 433.4 456.4 432.44C455.69 422.93 446.91 399.04 441.33 395.75C435.75 392.47 427.56 385.26 427.56 385.26C427.941 384.995 428.338 384.682 428.759 384.341C428.914 384.215 429.073 384.085 429.235 383.953L429.239 383.95C432.598 381.2 437.459 377.221 446.83 380.52C448.437 381.21 449.177 378.347 449.899 375.553C450.162 374.539 450.422 373.533 450.72 372.71ZM253.99 308.2C253.18 308.2 252.42 308.11 251.7 307.93C247.59 306.9 243.75 303.82 240.18 298.7L236.95 294.07L246.98 287.08L251.99 294.27C252.84 295.48 254.13 296.05 255.6 296.05C257.07 296.05 258.7 295.48 260.21 294.43C263.23 292.32 264.47 289.18 262.77 286.75L229.61 239.22L214.49 249.76L207.97 240.41L233.12 222.87L271.02 277.19C274.59 282.31 276.15 286.97 275.7 291.19C275.25 295.41 271.88 299.71 266.74 303.3C262.49 306.26 257.81 308.19 253.99 308.19V308.2ZM681.9 303.27L672.19 297.99L680.47 250.53L658.52 290.9L647.77 285.06L687.89 211.27L697.6 216.55L690.36 262.11L711.28 223.63L722.02 229.47L681.9 303.26V303.27ZM299.79 280.16C294.06 280.16 289.46 277.05 286.47 270.79L262.9 221.41C258.35 211.88 261.9 204.72 272.23 199.79C275.9 198.04 279.36 197.14 282.51 197.14C288.22 197.14 292.88 200.09 295.81 206.24L319.38 255.62C323.93 265.15 319.96 272.69 309.63 277.62C306.08 279.31 302.78 280.16 299.79 280.16ZM280.51 208.89C279.54 208.89 278.5 209.14 277.47 209.62C274.5 211.04 272.66 213.47 273.93 216.14L297.5 265.52C298.32 267.24 299.97 268.08 301.83 268.08C302.86 268.08 303.95 267.82 305.01 267.32C307.98 265.9 309.61 263.56 308.34 260.88L284.77 211.5C283.94 209.75 282.34 208.88 280.51 208.88V208.89ZM634.75 279.08L604.2 267.4L634.45 189.04L664.56 200.55L660.45 211.18L641.75 204.08L633.71 224.9L647.59 230.14L643.49 240.77L629.61 235.53L619.72 261.16L638.86 268.43L634.76 279.06L634.75 279.08ZM588.17 262.26L577.48 259.5L574.05 211.09L562.57 255.59L550.73 252.53L571.71 171.2L582.41 173.96L586.38 220.28L597.32 177.87L609.16 180.93L588.17 262.26ZM347.84 261.17C345.13 261.17 342.63 260.59 340.53 259.42C336.81 257.35 334.24 253.98 332.8 249.31L330.11 240.6L341.79 236.99L344.69 246.39C345.34 248.5 346.95 249.54 348.98 249.54C349.66 249.54 350.39 249.42 351.15 249.19C354.14 248.27 355.5 246.22 354.63 243.39L352.22 235.6C351.44 233.08 349.43 230.81 346.19 228.8L328.59 218.03C324.95 215.81 322.4 212.32 320.94 207.58L318.04 198.18C316.6 193.52 316.83 189.28 318.73 185.47C320.63 181.66 325.22 178.4 330.39 176.8C332.44 176.17 334.45 175.87 336.35 175.87C339.23 175.87 341.89 176.56 344.13 177.81C347.85 179.89 350.43 183.26 351.86 187.92L354.55 196.63L342.87 200.24L339.97 190.84C339.29 188.64 337.52 187.43 335.36 187.43C334.74 187.43 334.08 187.53 333.41 187.74C330.41 188.66 328.65 191.07 329.53 193.9L331.94 201.7C332.72 204.22 334.73 206.49 337.97 208.5L355.57 219.27C359.21 221.5 361.76 224.98 363.22 229.72L366.12 239.12C367.56 243.78 367.33 248.02 365.43 251.83C363.53 255.64 359.62 258.55 354.45 260.15C352.19 260.84 349.96 261.2 347.86 261.2L347.84 261.17ZM384.11 250.81L370.38 167.95L402.27 162.66L404.13 173.91L384.31 177.2L387.96 199.22L402.68 196.78L404.54 208.03L389.82 210.47L394.31 237.58L414.6 234.21L416.46 245.46L384.11 250.82V250.81ZM535.51 249.93L523.43 248.02L536.58 165.06L548.96 167L535.51 249.93ZM508.21 245.84L496.13 245.01L498.79 206.35L484.91 205.5L482.24 244.16L470.04 243.32L475.81 159.53L488.01 160.37L485.68 194.13L499.57 194.98L501.89 161.22L513.98 162.05L508.21 245.84ZM427.24 244.41L423.27 160.51L447.67 159.5L447.699 159.499C447.949 159.489 448.189 159.48 448.43 159.48C451.52 159.48 454.02 160.42 455.93 162.29C457.99 164.31 459.1 167.16 459.28 170.84L460.52 197.09C460.69 200.77 459.85 203.71 458 205.92C456.14 208.13 453.49 209.31 450.04 209.48L437.86 209.91L439.46 243.83L427.25 244.41H427.24ZM443.85 171.11H443.5L436.01 171.32L437.3 198.53L444.79 198.33C447.3 198.21 448.49 196.99 448.38 194.68L447.42 174.42C447.31 172.22 446.13 171.11 443.85 171.11ZM512.64 291.24L502.67 289.77L504.07 279.14L535.51 283.58L534.11 294.21L523.96 292.73L516.92 346.26L505.6 344.77L512.64 291.24ZM379.36 311.79L373.49 287.53L362.39 290.22L377.63 353.12L388.72 350.43L381.89 322.21L391.79 319.57L398.62 347.78L409.72 345.09L394.48 282.2L383.39 284.88L389.27 309.14L379.36 311.79ZM559.7 354.63L533.96 348.99L547.42 285.69L572.82 291.26L570.59 301.75L556.36 298.56L553.38 312.57L563.7 314.94L561.47 325.43L551.14 323.06L547.36 340.88L561.94 344.14L559.7 354.63ZM461.66 287.67L471.99 288.02L470.19 341.99L481.6 342.37L483.4 288.41L493.49 288.88L493.85 278.16L462.02 276.95L461.66 287.67ZM441.42 329.81L437.64 278.45L437.62 278.44L449.01 277.6L452.75 328.5C453.1 333.17 452.09 336.86 449.75 339.57C447.41 342.28 442.93 343.78 437.87 344.15C432.82 344.52 428.03 343.72 425.31 341.39C422.59 339.06 421.06 335.55 420.72 330.88L416.98 279.99L428.37 279.15L432.15 330.51C432.32 332.79 434.53 333.71 437.06 333.52C439.59 333.33 441.59 332.08 441.42 329.81ZM415.99 266.7L416.61 274.64L427.82 273.76L427.19 265.82L415.99 266.7ZM437.93 273.12L437.3 265.18L448.51 264.3L449.14 272.24L437.93 273.12Z" fill="#FBF5EC"/>
</svg>
